<?xml version="1.0" encoding="UTF-8" standalone="no"?>
<!DOCTYPE svg PUBLIC "-//W3C//DTD SVG 1.1//EN"
"http://www.w3.org/Graphics/SVG/1.1/DTD/svg11.dtd">


<!-- Page 2 -->
<svg x="0" y="0" width="692" height="382" viewBox="0 0 692 382" version="1.1" xmlns="http://www.w3.org/2000/svg" xmlns:xlink="http://www.w3.org/1999/xlink"
style="display: block;margin-left: auto;margin-right: auto;">
<defs>
<clipPath id="c0_2"><path d="M0,382.8V.1H692.7V382.8Z" /></clipPath>

<style type="text/css"><![CDATA[
text { white-space: pre; }
path, image { pointer-events: none; }

.s1_2{
font-size: 16.81px;
font-family: LiberationSans_1u;
fill: #000000;
}

.g0_2{
fill: #FFFFFF;
}
.g1_2{
fill: none;
stroke: #A5A5A5;
stroke-width: 0.77825004;
stroke-linecap: butt;
stroke-linejoin: miter;
stroke-miterlimit: 7;
}
.g2_2{
fill: none;
stroke: #A5A5A5;
stroke-width: 0.77825004;
stroke-linecap: butt;
stroke-linejoin: miter;
}
.g3_2{
fill: #A5A5A5;
}

]]></style>

</defs>
<path d="M0,0
L0,382
L692,382
L692,0 Z " 
fill="#FFFFFF" stroke="none" />
<g clip-path="url(#c0_2)">
<path fill-rule="evenodd" d="M0,.1H692.8V383H0V.1Z" class="g0_2" />
<path fill-rule="evenodd" d="M0,.1H692.8V383H0V.1Z" class="g0_2" />
</g>
<image x="251" y="39" width="170" height="61" xlink:href="2/shade/1.png" />
<path d="M251.2,49.8V48.7l.1,-.4v-.5l.2,-.6l.1,-.5l.2,-.4l.1,-.6l.3,-.4l.3,-.4l.2,-.5L253,44l.3,-.5l.5,-.4l.3,-.3l.3,-.4l.4,-.4l.5,-.3l.4,-.3l.4,-.2l.6,-.3l.3,-.1l.6,-.3l.4,-.2l.5,-.1L259,40h.6l.4,-.2H411.3l.6,.2h.4l.7,.2l.4,.1l.5,.2l.4,.3l.5,.1l.4,.3l.5,.2l.5,.3l.4,.3l.3,.4l.5,.4l.3,.3l.3,.4l.3,.5l.3,.4l.3,.5l.3,.4l.2,.4l.1,.6l.3,.4v.5l.2,.6l.1,.5v.4l.2,.6V90.7l-.2,.5v.6l-.1,.5l-.2,.4l-.1,.5l-.3,.6l-.2,.4l-.3,.5l-.1,.5l-.3,.3l-.3,.4l-.5,.5l-.3,.3l-.5,.4l-.3,.3l-.4,.4l-.5,.3l-.5,.3l-.4,.1l-.5,.3l-.4,.2l-.5,.1l-.4,.2l-.7,.1l-.4,.2h-1.5l-149.3,.1h-.5l-.6,-.1h-.4l-.6,-.2l-.5,-.1H258l-.4,-.3l-.6,-.2l-.3,-.1l-.6,-.3l-.4,-.3l-.4,-.3l-.5,-.4l-.4,-.3l-.3,-.3l-.3,-.4l-.5,-.3l-.3,-.5l-.3,-.4l-.2,-.5l-.3,-.5l-.3,-.4l-.1,-.5l-.2,-.4l-.1,-.6l-.2,-.5v-.5l-.1,-.6V49.8Z" class="g1_2" />
<text x="275" y="66" dx="0,0,0,0,-0.1,0,0.2,0,0,0,0,0.1,0,-0.1,0" class="s1_2">Socio-economic </text>
<text x="313" y="86" dx="0,0,0.1,0,0.2,0" class="s1_2">status</text>
<image x="251" y="152" width="170" height="54" xlink:href="2/shade/2.png" />
<path d="M251.2,161.3v-1.4l.1,-.4l.2,-.3l.1,-.5v-.4l.3,-.5l.2,-.5l.1,-.3l.3,-.4l.3,-.3l.4,-.5l.3,-.3l.3,-.3l.3,-.3l.3,-.3l.3,-.3l.4,-.3l.3,-.2l.5,-.3l.5,-.1l.4,-.2l.3,-.1l.5,-.2l.4,-.1h.5l.5,-.2H412.3l.7,.2h.3l.4,.1l.5,.2l.4,.1l.5,.2l.5,.1l.3,.3l.4,.2l.3,.3l.3,.3l.5,.3l.3,.3l.3,.3l.3,.3l.3,.5l.2,.3l.3,.4l.3,.3l.1,.5l.2,.5l.1,.4l.2,.5l.1,.3v.9l.2,.4v36.6l-.2,.4v.5l-.1,.3l-.2,.4l-.1,.5l-.2,.5l-.1,.4l-.3,.3l-.2,.5l-.3,.3l-.3,.4l-.3,.4l-.3,.3l-.3,.3l-.3,.3l-.5,.3l-.3,.3l-.4,.1l-.3,.3l-.5,.2l-.5,.1l-.4,.2l-.3,.1l-.5,.2H413l-.5,.2h-154L258,205l-.4,-.2l-.5,-.1h-.3l-.4,-.3l-.5,-.2l-.5,-.1l-.3,-.3l-.4,-.3l-.3,-.3l-.3,-.3l-.3,-.3l-.3,-.3l-.3,-.4l-.4,-.3l-.3,-.4l-.3,-.3l-.1,-.5l-.2,-.4l-.3,-.5v-.3l-.1,-.5l-.2,-.4l-.1,-.5V161.3Z" class="g1_2" />
<text x="305" y="185" dx="0,-0.1,-0.1,0,0,0.1,0" class="s1_2">Disease</text>
<image x="251" y="257" width="170" height="57" xlink:href="2/shade/3.png" />
<path d="M251.2,267.3v-.9l.1,-.4v-.5l.2,-.5l.1,-.4l.2,-.6l.1,-.3l.2,-.5l.3,-.4l.3,-.5l.1,-.3l.4,-.5l.3,-.3l.4,-.4l.3,-.3l.3,-.3l.5,-.4l.3,-.1l.4,-.3l.5,-.3l.5,-.2l.4,-.1l.5,-.3h.4l.5,-.2l.5,-.1H412.3l.7,.1l.4,.2h.5l.4,.3l.5,.1l.4,.2l.4,.3l.4,.3l.5,.1l.3,.4l.4,.3l.3,.3l.3,.4l.4,.3l.3,.5l.3,.3l.3,.5l.1,.4l.2,.5l.3,.3l.1,.6l.2,.4v.5l.1,.5v.4l.2,.5v38.5l-.2,.6v.4l-.1,.5l-.2,.5l-.1,.4l-.2,.5l-.1,.4l-.3,.5l-.3,.3l-.3,.5l-.3,.3l-.4,.4l-.3,.3l-.3,.3l-.3,.3l-.4,.3l-.3,.4l-.5,.3l-.5,.1l-.4,.2l-.5,.3l-.4,.1l-.5,.2H413l-.5,.1l-.5,.2H259.4l-.4,-.2h-.5l-.5,-.1l-.4,-.2l-.5,-.1l-.4,-.2l-.5,-.1l-.5,-.3l-.4,-.3l-.3,-.2l-.5,-.3l-.3,-.3l-.3,-.5l-.4,-.3l-.3,-.3l-.4,-.4l-.1,-.3l-.3,-.5l-.3,-.5l-.2,-.4l-.1,-.5l-.2,-.4l-.1,-.5l-.2,-.5V306l-.1,-.5V267.3Z" class="g1_2" />
<text x="288" y="292" dx="0,0,0,0.1,-0.1,0,0,0,0.2,0,0" class="s1_2">Environment</text>
<image x="497" y="195" width="186" height="68" xlink:href="2/shade/4.png" />
<path d="M497.3,229.3l.1,-1.8l.3,-1.7l.7,-1.5l.7,-1.7l1.1,-1.7l1.4,-1.7l1.3,-1.5l1.9,-1.5l2,-1.6l2,-1.5l2.4,-1.5l2.6,-1.4l2.7,-1.2l2.9,-1.4l3.3,-1.2l3.2,-1.2l3.5,-1.1L533,203l3.7,-1.1l4,-.9l4,-.9l4.1,-.8l4.3,-.6l4.2,-.6l4.5,-.6l4.5,-.4l4.6,-.3l4.6,-.4l4.6,-.3l4.7,-.1h9.5l4.7,.1l4.9,.3l4.8,.4l4.5,.3l4.6,.6l4.6,.6l4.4,.6l4.5,.8l4.3,.7l3.9,.9l4.2,1l3.8,1.2l3.6,1l3.6,1.3l3.2,1.2l3.2,1.4l2.9,1.3l2.7,1.4l2.5,1.5l2.3,1.6l2.1,1.5l1.8,1.5l1.7,1.7l1.4,1.7l1.1,1.7l.9,1.6l.6,1.9l.4,1.7v1.6l-.1,1.9l-.3,1.7l-.6,1.6l-.9,1.7l-1.1,1.7l-1.4,1.7l-1.7,1.7l-1.8,1.6l-2.1,1.6l-2.3,1.5l-2.5,1.5l-2.7,1.4l-2.9,1.4l-3.2,1.3l-3.2,1.3l-3.6,1.2l-3.6,1.1l-3.8,1l-4,1.1l-4.1,.8l-4.3,.9l-4.5,.7l-4.4,.7l-4.6,.6l-4.6,.4l-4.5,.5l-4.8,.3l-4.9,.3h-4.7l-4.9,.1l-4.7,-.1h-4.9l-4.7,-.3l-4.8,-.3l-4.7,-.5l-4.6,-.4l-4.6,-.6l-4.4,-.7l-4.3,-.7l-4.3,-.9l-4.1,-.8l-4,-1.1l-3.8,-1l-3.7,-1.1l-3.5,-1.2L521,251.4l-3.1,-1.3l-3,-1.4l-2.6,-1.4l-2.6,-1.5l-2.3,-1.5l-2.2,-1.6l-1.8,-1.6l-1.5,-1.6l-1.4,-1.7l-1.2,-1.6l-.8,-1.7l-.8,-1.8l-.3,-1.7l-.1,-1.7Z" class="g1_2" />
<text x="537" y="235" dx="0,-0.1,0.1,-0.1,0.1,0,0,0.2,0.1,0,-0.1,-0.1,0.1" class="s1_2">CVD mortality</text>
<image x="495" y="99" width="186" height="68" xlink:href="2/shade/5.png" />
<path d="M496.1,132.9l.1,-1.7l.3,-1.7l.6,-1.7l.8,-1.6l1.1,-1.7l1.3,-1.5l1.6,-1.7l1.7,-1.5l1.9,-1.6l2,-1.5l2.5,-1.4l2.6,-1.4l2.7,-1.3l2.9,-1.4l3.2,-1.2l3.2,-1.2l3.6,-1.1l3.6,-1.1l3.7,-.9l4,-1.1l3.9,-.7l4.2,-.8l4.2,-.8l4.5,-.6l4.2,-.6l4.6,-.4l4.6,-.4l4.6,-.3l4.6,-.1l4.7,-.2l4.6,-.1l4.9,.1l4.7,.2l4.9,.1l4.7,.3l4.6,.5l4.8,.5l4.4,.6l4.4,.6l4.5,.8l4.2,.9l4.2,.9l3.9,.9l3.9,1.1l3.6,1l3.5,1.3l3.2,1.2l3.2,1.4l2.9,1.3l2.8,1.4l2.4,1.5l2.3,1.6l2.2,1.5l1.8,1.7l1.7,1.5l1.4,1.7l1,1.7l1,1.8l.6,1.7l.4,1.7l.2,1.8h-.2l-.1,1.7l-.3,1.7l-.6,1.8l-1,1.7l-1,1.6l-1.4,1.7l-1.7,1.6l-1.8,1.6l-2.2,1.6l-2.3,1.5l-2.4,1.5l-2.8,1.4l-2.9,1.4l-3.2,1.3l-3.2,1.3l-3.5,1.2l-3.6,1.1l-3.9,1l-3.9,1.1l-4.2,.9l-4.2,.8l-4.5,.7l-4.4,.7l-4.4,.6L612,165l-4.6,.3l-4.7,.3l-4.9,.3l-4.7,.1h-9.6l-4.9,-.1l-4.8,-.3l-4.7,-.3l-4.7,-.3l-4.6,-.6l-4.6,-.6l-4.4,-.7l-4.3,-.7l-4.3,-.8l-4.1,-.9l-4,-.9l-3.8,-1.2l-3.7,-1.1l-3.5,-1.2L519.8,155l-3.1,-1.3l-3.1,-1.4L511,150.9l-2.6,-1.5l-2.2,-1.5l-2,-1.6l-2,-1.5l-1.5,-1.7l-1.4,-1.7l-1.2,-1.6l-.8,-1.7l-.8,-1.8l-.3,-1.7l-.1,-1.7Z" class="g1_2" />
<text x="570" y="129" dx="0,-0.1,0,-0.1" class="s1_2">CVD </text>
<text x="535" y="149" dx="0,0,0,0,0,-0.1,0.2,0,-0.1,-0.1,0,0,0.1,0.1,0" class="s1_2">hospitalization</text>
<image x="16" y="257" width="160" height="39" xlink:href="2/shade/6.png" />
<path d="M95.9,296.4H16.7V258H175.4v38.4H95.9Z" class="g1_2" />
<text x="48" y="273" dx="0,-1.7,0,0,0,0,0.2,0,0.1,0,0.2,0" class="s1_2">Temperature </text>
<text x="64" y="294" dx="0,0.1,0,0,-0.1,0,0.2,-0.2,0.1" class="s1_2">variation</text>
<image x="16" y="308" width="160" height="39" xlink:href="2/shade/7.png" />
<path d="M95.9,347.2H16.7V308.9H175.4v38.3H95.9Z" class="g1_2" />
<text x="52" y="334" dx="0,0,-0.1,0,0.2,0,0,-0.1,-0.1,0,0.1,-0.1,0.1" class="s1_2">Air pollution</text>
<image x="16" y="191" width="160" height="40" xlink:href="2/shade/8.png" />
<path d="M95.9,229.9H16.7V191.6H175.4v38.3H95.9Z" class="g1_2" />
<text x="51" y="217" dx="0,0.1,0,0,0,0.2,0,-0.1,0,-0.1,0.1" class="s1_2">Comorbidity</text>
<image x="16" y="140" width="160" height="39" xlink:href="2/shade/9.png" />
<path d="M95.9,179H16.7V140.7H175.4V179H95.9Z" class="g1_2" />
<text x="35" y="166" dx="0,0,0,0,0.1,0.1,0.1,0,0,0.1,0.1,0,0,0,0,-0.1" class="s1_2">Acute or chronic</text>
<image x="16" y="77" width="160" height="40" xlink:href="2/shade/10.png" />
<path d="M95.9,116.1H16.7V77.6H175.4v38.5H95.9Z" class="g1_2" />
<text x="67" y="103" dx="0,0.2,0,0,0,0" class="s1_2">Gender</text>
<image x="16" y="28" width="160" height="40" xlink:href="2/shade/11.png" />
<path d="M95.9,67H16.7V28.7H175.4V67H95.9Z" class="g1_2" />
<text x="81" y="54" class="s1_2">Age</text>
<image x="0" y="382" width="1" height="2" xlink:href="2/shade/12.png" />
<path d="M175.4,47.9l67.7,19.6" class="g2_2" />
<path fill-rule="evenodd" d="M251.2,69.8l-10,1.8l2.5,-8.7l7.5,6.9Z" class="g3_2" />
<image x="0" y="382" width="1" height="2" xlink:href="2/shade/13.png" />
<path d="M175.4,96.8L243.2,72.7" class="g2_2" />
<path fill-rule="evenodd" d="M251.2,69.8l-7.1,7.3l-3,-8.5l10.1,1.2Z" class="g3_2" />
<image x="0" y="382" width="1" height="2" xlink:href="2/shade/14.png" />
<path d="M175.4,159.9l67.5,17" class="g2_2" />
<path fill-rule="evenodd" d="M251.2,178.9l-10,2.3l2.3,-8.9l7.7,6.6Z" class="g3_2" />
<image x="0" y="382" width="1" height="2" xlink:href="2/shade/15.png" />
<path d="M175.4,210.7l68,-28.5" class="g2_2" />
<path fill-rule="evenodd" d="M251.2,178.9l-6.6,7.8l-3.5,-8.4l10.1,.6Z" class="g3_2" />
<image x="0" y="382" width="1" height="2" xlink:href="2/shade/16.png" />
<path d="M175.4,277.1l67.4,7.8" class="g2_2" />
<path fill-rule="evenodd" d="M251.2,286l-9.7,3.5l1.3,-9.2l8.4,5.7Z" class="g3_2" />
<image x="0" y="382" width="1" height="2" xlink:href="2/shade/17.png" />
<path d="M175.4,328l68.4,-37.9" class="g2_2" />
<path fill-rule="evenodd" d="M251.2,286l-5.8,8.4l-4.5,-8.1l10.3,-.3Z" class="g3_2" />
<image x="0" y="382" width="1" height="2" xlink:href="2/shade/18.png" />
<path d="M420.3,69.8l35,95.5" class="g2_2" />
<path fill-rule="evenodd" d="M458.2,173.2l-7.4,-7l8.6,-3.1l-1.2,10.1Z" class="g3_2" />
<image x="0" y="382" width="1" height="2" xlink:href="2/shade/19.png" />
<path d="M420.3,176.4l29.5,-.6" class="g2_2" />
<path fill-rule="evenodd" d="M458.2,175.7l-9,4.7l-.2,-9.2l9.2,4.5Z" class="g3_2" />
<image x="0" y="382" width="1" height="2" xlink:href="2/shade/20.png" />
<path d="M420.3,286l35.1,-99.2" class="g2_2" />
<path fill-rule="evenodd" d="M458.2,178.9l1.4,10.1l-8.8,-3.1l7.4,-7Z" class="g3_2" />
<image x="0" y="382" width="1" height="2" xlink:href="2/shade/21.png" />
<path d="M458.2,173.1L490.3,139" class="g2_2" />
<path fill-rule="evenodd" d="M496.1,132.9l-2.9,9.6l-6.6,-6.2l9.5,-3.4Z" class="g3_2" />
<image x="0" y="382" width="1" height="2" xlink:href="2/shade/22.png" />
<path d="M459.4,179.6l32.9,43" class="g2_2" />
<path fill-rule="evenodd" d="M497.3,229.3l-9.2,-4.4l7.4,-5.7l1.8,10.1Z" class="g3_2" />


<!-- Any embedded fonts defined here -->
<style type="text/css" ><![CDATA[

@font-face {
	font-family: LiberationSans_1u;
	src: url("fonts/LiberationSans_1u.woff") format("woff");
}

]]></style>

</svg>
